<svg width="39" height="39" viewBox="0 0 39 39" fill="none" xmlns="http://www.w3.org/2000/svg">
<path opacity="0.4" d="M7.40671 24.7367L14.5254 31.8554C17.4482 34.7783 22.194 34.7783 25.1326 31.8554L32.0312 24.9567C34.9541 22.0338 34.9541 17.2881 32.0312 14.3495L24.8969 7.24656C23.404 5.75369 21.3454 4.95225 19.2397 5.06225L11.3825 5.4394C8.23958 5.58083 5.74098 8.07942 5.58384 11.2066L5.20669 19.0638C5.11241 21.1853 5.91384 23.2439 7.40671 24.7367Z" fill="#FF7889"/>
<path d="M15.7826 20.1482C18.2821 20.1482 20.3084 18.1219 20.3084 15.6224C20.3084 13.1229 18.2821 11.0967 15.7826 11.0967C13.2831 11.0967 11.2568 13.1229 11.2568 15.6224C11.2568 18.1219 13.2831 20.1482 15.7826 20.1482Z" fill="#FF7889"/>
<path d="M21.2826 28.5868C20.984 28.5868 20.6854 28.4768 20.4497 28.2411C19.994 27.7853 19.994 27.031 20.4497 26.5753L26.7355 20.2895C27.1912 19.8338 27.9455 19.8338 28.4012 20.2895C28.8569 20.7453 28.8569 21.4996 28.4012 21.9553L22.1154 28.2411C21.8797 28.4768 21.5811 28.5868 21.2826 28.5868Z" fill="#FF7889"/>
</svg>
