<svg width="87" height="88" viewBox="0 0 87 88" fill="none" xmlns="http://www.w3.org/2000/svg">
<path d="M27.9571 6.0119L26.6381 6.68108C26.5274 6.52265 26.4013 6.39602 26.2598 6.3012C26.1173 6.20437 25.9638 6.13831 25.7995 6.10302C25.6352 6.06773 25.464 6.0637 25.286 6.09091C25.1099 6.11711 24.9336 6.17502 24.7569 6.26465C24.4377 6.4266 24.1998 6.64698 24.0434 6.92578C23.8859 7.20257 23.8183 7.52464 23.8406 7.89201C23.8618 8.25737 23.981 8.65387 24.1979 9.08151C24.421 9.5212 24.6736 9.85752 24.9559 10.0905C25.2402 10.3224 25.5395 10.4546 25.8538 10.487C26.1681 10.5193 26.4809 10.4566 26.7921 10.2988C26.9667 10.2101 27.1166 10.105 27.2418 9.9835C27.3689 9.86092 27.4683 9.72594 27.54 9.57852C27.6106 9.4291 27.6514 9.27079 27.6625 9.10359C27.6757 8.93537 27.6555 8.76131 27.6021 8.5814L28.9242 7.91824C29.0337 8.21864 29.0869 8.53498 29.0838 8.86725C29.0817 9.19649 29.0187 9.52257 28.8947 9.84549C28.7717 10.1654 28.5832 10.4655 28.3291 10.7459C28.076 11.0232 27.7517 11.2622 27.3561 11.4629C26.806 11.742 26.251 11.867 25.691 11.8381C25.1331 11.8081 24.6089 11.6209 24.1186 11.2764C23.6303 10.9308 23.216 10.4228 22.8758 9.75222C22.5346 9.07964 22.3708 8.44326 22.3844 7.84311C22.398 7.24296 22.559 6.7094 22.8674 6.24245C23.1748 5.77348 23.5995 5.4015 24.1416 5.12649C24.499 4.94518 24.8557 4.82733 25.2118 4.77289C25.5699 4.71744 25.9163 4.72599 26.251 4.79854C26.5847 4.86909 26.8961 5.00521 27.1852 5.2069C27.4764 5.40758 27.7337 5.67591 27.9571 6.0119Z" fill="#CC1212"/>
<path d="M34.985 8.46074L32.0298 6.24813L31.5498 6.38731L32.3709 9.21876L30.9665 9.62599L29.0404 2.98359L30.4448 2.57637L31.2141 5.22943L31.4963 5.14761L32.9324 1.85502L34.6806 1.34809L32.9826 5.18074L36.7267 7.95569L34.985 8.46074Z" fill="#CC1212"/>
<path d="M36.704 0.935522L38.1568 0.802632L38.553 5.13408L38.6102 5.12885L41.1902 0.525166L42.4647 0.408577L43.0947 7.29585L41.6386 7.42904L41.2421 3.09424L41.1916 3.09885L38.5951 7.70743L37.334 7.82278L36.704 0.935522Z" fill="#CC1212"/>
<path d="M43.8436 8.86174L44.1256 6.04254L44.5927 6.08926C44.7632 5.99092 44.9249 5.84422 45.0779 5.6491C45.2311 5.45175 45.3733 5.17296 45.5043 4.81275C45.6356 4.4503 45.7515 3.97092 45.8518 3.3746L46.3378 0.484157L50.8909 0.939616L50.3185 6.66203L51.0711 6.73733L50.7898 9.5498L49.392 9.40997L49.5573 7.75676L45.4075 7.34164L45.2414 9.00158L43.8436 8.86174ZM46.2728 6.25734L48.9206 6.5222L49.373 1.99938L47.5283 1.81485L47.2497 3.51442C47.1751 3.96626 47.0866 4.36467 46.9842 4.70964C46.884 5.05485 46.7737 5.35491 46.6532 5.60983C46.5351 5.86274 46.4083 6.07858 46.2728 6.25734Z" fill="#CC1212"/>
<path d="M55.4985 9.22803L54.1955 5.77392L53.7159 5.63332L52.8866 8.46237L51.4834 8.05104L53.4289 1.41429L54.8321 1.82562L54.055 4.47643L54.337 4.55908L57.3176 2.55422L59.0643 3.06625L55.5726 5.38581L57.2387 9.73814L55.4985 9.22803Z" fill="#CC1212"/>
<path d="M60.9009 3.77845L62.2006 4.44109L60.2249 8.31604L60.2761 8.34211L64.9142 5.82468L66.0545 6.40603L62.913 12.5674L61.6104 11.9032L63.5875 8.02529L63.5424 8.00229L58.8876 10.5151L57.7595 9.93984L60.9009 3.77845Z" fill="#CC1212"/>
<path d="M70.6087 21.1551L72.94 19.5448L73.2067 19.931C73.392 19.9973 73.6086 20.0256 73.8563 20.0159C74.1059 20.0049 74.4104 19.9327 74.7698 19.7994C75.1311 19.6648 75.5714 19.4427 76.0909 19.1332L78.6084 17.6323L81.209 21.3972L76.4771 24.6657L76.907 25.2881L74.5814 26.8945L73.783 25.7386L75.15 24.7943L72.7798 21.3628L71.4071 22.3109L70.6087 21.1551ZM74.1664 21.3203L75.6787 23.5098L79.4187 20.9265L78.365 19.4011L76.8893 20.2891C76.4966 20.5247 76.1357 20.7152 75.8065 20.8605C75.4785 21.0077 75.1784 21.1178 74.9061 21.191C74.6369 21.2648 74.3903 21.3079 74.1664 21.3203Z" fill="#414141"/>
<path d="M76.1012 26.1885L77.1799 25.7222L77.2731 25.8953C77.3918 26.1187 77.5604 26.2678 77.7791 26.3425C77.9999 26.4163 78.299 26.4133 78.6766 26.3335C79.0571 26.2549 79.5463 26.0986 80.1442 25.8647L83.0136 24.7494L84.8761 29.058L78.5278 31.8022L77.9637 30.4972L83.2364 28.218L82.4766 26.4604L80.2237 27.3166C79.4985 27.5908 78.8812 27.7571 78.3717 27.8155C77.8631 27.8759 77.4375 27.8048 77.0949 27.6022C76.7531 27.4016 76.4719 27.0461 76.2513 26.5357L76.1012 26.1885Z" fill="#414141"/>
<path d="M80.1522 38.2878L79.8312 36.8647L85.4116 35.606L85.1946 34.6441C85.1327 34.3695 85.0406 34.1503 84.9182 33.9864C84.7985 33.8241 84.6517 33.7153 84.4776 33.6599C84.3036 33.6046 84.1046 33.6022 83.8806 33.6527C83.6587 33.7027 83.4833 33.7896 83.3543 33.9133C83.2253 34.037 83.1437 34.1974 83.1097 34.3943C83.0756 34.5912 83.0893 34.8258 83.1508 35.0982L83.5 36.6464L82.3536 36.905L81.9524 35.1261C81.836 34.61 81.822 34.1493 81.9106 33.7439C81.9992 33.3385 82.182 33.003 82.459 32.7375C82.7383 32.4714 83.1019 32.2878 83.5499 32.1868C83.9957 32.0862 84.4047 32.0932 84.7767 32.2078C85.1514 32.324 85.4694 32.5419 85.7307 32.8615C85.9947 33.1827 86.1842 33.5981 86.2991 34.1076L86.8988 36.766L80.1522 38.2878ZM82.4014 33.9552L82.7484 35.4936L79.3081 34.5456L78.953 32.9709L82.4014 33.9552Z" fill="#414141"/>
<path d="M85.2106 57.8541L78.533 56.0538L78.9093 54.6583L84.4392 56.1492L85.167 53.4495L79.6371 51.9586L80.0133 50.5631L86.691 52.3634L85.2106 57.8541Z" fill="#414141"/>
<path d="M78.4519 64.44C77.775 64.1073 77.2622 63.696 76.9135 63.2061C76.5638 62.7182 76.372 62.1924 76.3379 61.6288C76.3049 61.0682 76.4229 60.5141 76.692 59.9666C76.9631 59.415 77.3316 58.9815 77.7977 58.6662C78.2637 58.3509 78.7966 58.1826 79.3966 58.1614C79.9965 58.1402 80.6339 58.2954 81.3087 58.6271C81.9856 58.9597 82.4989 59.37 82.8486 59.8579C83.1983 60.3459 83.3896 60.8701 83.4227 61.4307C83.4577 61.9923 83.3397 62.5489 83.0686 63.1005C82.7995 63.648 82.432 64.0795 81.966 64.3948C81.501 64.7131 80.9685 64.8829 80.3686 64.9041C79.7677 64.9274 79.1288 64.7727 78.4519 64.44ZM79.1058 63.1095C79.5442 63.325 79.9462 63.441 80.3118 63.4577C80.6764 63.4763 80.9946 63.4057 81.2664 63.2457C81.5381 63.0858 81.752 62.8472 81.9079 62.53C82.0638 62.2128 82.122 61.8977 82.0826 61.5849C82.0432 61.272 81.9053 60.976 81.6688 60.6967C81.4313 60.4194 81.0933 60.173 80.6548 59.9576C80.2164 59.7421 79.8149 59.625 79.4503 59.6064C79.0847 59.5897 78.766 59.6614 78.4942 59.8213C78.2225 59.9813 78.0087 60.2198 77.8528 60.5371C77.6969 60.8543 77.6386 61.1693 77.678 61.4822C77.7174 61.795 77.8559 62.0901 78.0934 62.3674C78.3299 62.6466 78.6673 62.894 79.1058 63.1095Z" fill="#414141"/>
<path d="M74.8056 71.1609L75.7049 69.9866C75.8733 70.0815 76.0417 70.1411 76.2104 70.1653C76.3808 70.1909 76.5477 70.184 76.7111 70.1446C76.8745 70.1053 77.0305 70.0348 77.1792 69.9332C77.3266 69.8334 77.4605 69.7048 77.5809 69.5475C77.7986 69.2633 77.9176 68.9617 77.9379 68.6427C77.96 68.325 77.8815 68.0054 77.7023 67.6839C77.525 67.3638 77.246 67.0579 76.8652 66.7664C76.4738 66.4666 76.1005 66.2728 75.7452 66.185C75.3885 66.099 75.0615 66.1095 74.7641 66.2164C74.4668 66.3233 74.212 66.5152 73.9998 66.7923C73.8807 66.9478 73.7911 67.1074 73.7309 67.2711C73.6694 67.4367 73.6382 67.6014 73.6375 67.7653C73.6385 67.9305 73.6702 68.0909 73.7326 68.2465C73.7936 68.4038 73.8871 68.552 74.0132 68.691L73.1085 69.8612C72.8797 69.6378 72.6948 69.3757 72.5538 69.0748C72.4131 68.7771 72.3288 68.4559 72.3007 68.1112C72.2731 67.7696 72.3131 67.4174 72.4207 67.0547C72.5288 66.6951 72.7177 66.3392 72.9874 65.9871C73.3624 65.4974 73.8086 65.1443 74.3259 64.928C74.8418 64.7134 75.3954 64.6553 75.9865 64.7535C76.5763 64.8536 77.1696 65.1322 77.7666 65.5894C78.3654 66.0479 78.7886 66.5506 79.0361 67.0975C79.2837 67.6444 79.3696 68.1951 79.2937 68.7495C79.2197 69.3053 78.9979 69.8245 78.6283 70.3071C78.3847 70.6253 78.1141 70.886 77.8167 71.0892C77.5179 71.2942 77.2019 71.4365 76.8688 71.516C76.5375 71.5969 76.1979 71.609 75.8499 71.5524C75.5006 71.4975 75.1525 71.367 74.8056 71.1609Z" fill="#414141"/>
<path d="M74.6 73.2144L75.4052 74.1117L71.1778 77.9054L70.3726 77.0081L71.9485 75.5939L68.1345 71.3439L69.2102 70.3786L73.0242 74.6286L74.6 73.2144Z" fill="#414141"/>
<path d="M61.9483 79.7969C61.5588 79.1511 61.3498 78.5278 61.3214 77.9271C61.2911 77.3276 61.4139 76.7816 61.69 76.289C61.9653 75.7996 62.3642 75.3973 62.8866 75.0822C63.4129 74.7648 63.9573 74.5994 64.5198 74.5862C65.0824 74.5729 65.6217 74.7195 66.1378 75.0261C66.654 75.3326 67.1062 75.8078 67.4946 76.4517C67.8841 77.0975 68.094 77.7202 68.1244 78.3197C68.1547 78.9192 68.0322 79.4637 67.7569 79.9532C67.4828 80.4445 67.0825 80.8489 66.5563 81.1664C66.0338 81.4815 65.4914 81.6456 64.9288 81.6589C64.3656 81.6753 63.8258 81.5302 63.3097 81.2237C62.7916 80.9183 62.3378 80.4427 61.9483 79.7969ZM63.2178 79.0312C63.4701 79.4496 63.7455 79.7646 64.0441 79.9762C64.3407 80.189 64.6466 80.3017 64.9616 80.3141C65.2767 80.3265 65.5856 80.2414 65.8883 80.0588C66.1909 79.8763 66.4103 79.6428 66.5463 79.3583C66.6823 79.0738 66.7264 78.7502 66.6784 78.3873C66.6285 78.0257 66.4774 77.6357 66.2251 77.2173C65.9728 76.799 65.6983 76.4834 65.4017 76.2706C65.1032 76.0589 64.7963 75.9469 64.4813 75.9345C64.1662 75.9221 63.8573 76.0072 63.5546 76.1897C63.252 76.3723 63.0326 76.6058 62.8966 76.8903C62.7606 77.1748 62.7175 77.4978 62.7674 77.8595C62.8153 78.2223 62.9654 78.6129 63.2178 79.0312Z" fill="#414141"/>
<path d="M54.402 79.0449L55.7701 78.5386L57.7556 83.9035L58.6804 83.5613C58.9443 83.4636 59.1495 83.3433 59.2958 83.2003C59.4408 83.0602 59.5292 82.9003 59.5611 82.7204C59.593 82.5406 59.569 82.343 59.4893 82.1277C59.4104 81.9144 59.3011 81.752 59.1614 81.6405C59.0217 81.5289 58.852 81.4693 58.6523 81.4616C58.4526 81.4539 58.2219 81.4985 57.9601 81.5954L56.4716 82.1463L56.0637 81.0441L57.7739 80.4112C58.27 80.2276 58.7249 80.1529 59.1384 80.1871C59.552 80.2212 59.9087 80.3581 60.2086 80.5976C60.5092 80.8392 60.7393 81.1754 60.8987 81.6061C61.0573 82.0347 61.1044 82.4409 61.0401 82.8248C60.9744 83.2116 60.8004 83.5557 60.5182 83.8569C60.2347 84.1611 59.848 84.4039 59.3582 84.5851L56.8024 85.531L54.402 79.0449ZM58.9939 80.7014L57.5149 81.2488L57.9997 77.7134L59.5136 77.1532L58.9939 80.7014Z" fill="#414141"/>
<path d="M53.3878 79.4102L54.5535 86.2272L53.1122 86.4737L52.6312 83.661L49.7053 84.1613L50.1863 86.974L48.7483 87.2199L47.5826 80.4028L49.0206 80.1569L49.5021 82.973L52.428 82.4727L51.9465 79.6566L53.3878 79.4102Z" fill="#414141"/>
<path d="M46.3098 80.5641L46.1257 87.4777L44.664 87.4387L44.74 84.5862L41.7727 84.5072L41.6967 87.3597L40.2383 87.3209L40.4225 80.4073L41.8808 80.4461L41.8048 83.302L44.7721 83.3811L44.8481 80.5252L46.3098 80.5641Z" fill="#414141"/>
<path d="M37.3205 84.4119L35.7175 84.0293C35.1832 83.9018 34.744 83.7056 34.3999 83.4406C34.053 83.1773 33.8119 82.864 33.6764 82.5007C33.5409 82.1374 33.5249 81.7436 33.6285 81.3193C33.7272 80.8961 33.9203 80.5476 34.2079 80.2736C34.4949 80.0019 34.8539 79.8214 35.2849 79.7322C35.7137 79.6424 36.1952 79.6613 36.7295 79.7888L39.2424 80.3884L37.6369 87.1156L36.2179 86.7769L37.5506 81.1929L36.4567 80.9319C36.2005 80.8707 35.9739 80.8652 35.7767 80.9154C35.5791 80.9677 35.4171 81.0598 35.2907 81.1917C35.1616 81.3252 35.0762 81.4842 35.0345 81.6687C34.9686 81.9353 35.0155 82.1849 35.1752 82.4175C35.3323 82.6517 35.6024 82.8145 35.9856 82.906L37.5886 83.2885L37.3205 84.4119ZM30.5682 85.4286L32.1736 78.7015L33.5926 79.0401L31.9872 85.7672L30.5682 85.4286Z" fill="#414141"/>
<path d="M27.1152 84.0487L26.8431 81.3235L26.7941 81.3007L24.5302 82.8482L23.0325 82.1527L26.4032 79.9054L25.9026 75.8602L27.4279 76.5685L27.72 79.3068L27.769 79.3296L30.0497 77.7861L31.5688 78.4916L28.149 80.7161L28.619 84.7471L27.1152 84.0487Z" fill="#414141"/>
<path d="M16.0228 67.5558L15.3127 71.1786L15.6466 71.5506L17.8407 69.5816L18.8173 70.6698L13.67 75.289L12.6934 74.2007L14.7493 72.3558L14.5531 72.1371L10.9635 72.273L9.74778 70.9183L13.9375 70.7838L14.8116 66.2062L16.0228 67.5558Z" fill="#414141"/>
<path d="M14.5756 66.0131L13.5693 66.6201L13.4537 66.4611C13.3061 66.2557 13.1189 66.1306 12.8922 66.086C12.6635 66.0425 12.3675 66.0856 12.0041 66.2154C11.6376 66.3445 11.1738 66.565 10.6127 66.8771L7.9191 68.3677L5.49478 64.3482L11.417 60.7763L12.1513 61.9937L7.23247 64.9604L8.22139 66.6L10.339 65.449C11.0207 65.0799 11.6101 64.8322 12.1071 64.7059C12.603 64.5778 13.0343 64.591 13.401 64.7458C13.7666 64.8986 14.093 65.2131 14.3802 65.6893L14.5756 66.0131Z" fill="#414141"/>
<path d="M4.1586 61.761L3.6627 60.389L7.75324 58.9105L7.73372 58.8565L2.6273 57.5244L2.19224 56.3207L8.69644 53.9698L9.19349 55.3449L5.09978 56.8246L5.117 56.8722L10.2323 58.2191L10.6628 59.4101L4.1586 61.761Z" fill="#414141"/>
<path d="M8.37765 52.8645L1.56057 54.0302L0.775094 49.4366L1.96342 49.2334L2.50244 52.3857L4.12682 52.1079L3.62822 49.192L4.81655 48.9888L5.31515 51.9047L6.94286 51.6264L6.40157 48.4608L7.5899 48.2576L8.37765 52.8645Z" fill="#414141"/>
<path d="M7.34911 46.8516L0.433582 46.7688L0.451081 45.3067L3.30442 45.3408L3.33994 42.3727L0.48661 42.3385L0.504075 40.8798L7.41959 40.9626L7.40214 42.4213L4.54543 42.3871L4.5099 45.3553L7.36661 45.3895L7.34911 46.8516Z" fill="#414141"/>
<path d="M1.86119 38.8363L0.679162 38.5992L1.79611 33.0301L2.97815 33.2672L2.56178 35.3432L8.16073 36.4661L7.87652 37.8832L2.27757 36.7603L1.86119 38.8363Z" fill="#414141"/>
<path d="M7.99397 26.0927C8.69337 26.3749 9.23489 26.7476 9.61852 27.2107C10.003 27.6717 10.2329 28.182 10.3081 28.7416C10.3821 29.2983 10.3049 29.8595 10.0766 30.4253C9.84663 30.9952 9.5108 31.4545 9.06911 31.8031C8.62742 32.1517 8.10819 32.3585 7.51142 32.4236C6.91465 32.4887 6.26762 32.3805 5.57031 32.0992C4.87091 31.817 4.32897 31.4453 3.9445 30.9843C3.56002 30.5233 3.33079 30.0144 3.2568 29.4578C3.18073 28.9003 3.25768 28.3365 3.48766 27.7666C3.71596 27.2008 4.05095 26.7436 4.49265 26.395C4.93309 26.0435 5.45168 25.8352 6.04845 25.7701C6.64606 25.703 7.29457 25.8105 7.99397 26.0927ZM7.43924 27.4675C6.98619 27.2847 6.57675 27.1984 6.21091 27.2086C5.84593 27.2166 5.53377 27.3104 5.27445 27.4898C5.01513 27.6692 4.81934 27.9228 4.68708 28.2506C4.55481 28.5783 4.51979 28.8968 4.58198 29.2059C4.64417 29.5151 4.80342 29.8002 5.05974 30.0615C5.3169 30.3206 5.67201 30.5416 6.12505 30.7244C6.57809 30.9072 6.98711 30.9946 7.3521 30.9865C7.71793 30.9763 8.03051 30.8815 8.28983 30.7021C8.54915 30.5227 8.74493 30.2691 8.87719 29.9413C9.00945 29.6135 9.04449 29.2951 8.9823 28.9859C8.92011 28.6768 8.76043 28.3927 8.50327 28.1335C8.24695 27.8723 7.89228 27.6503 7.43924 27.4675Z" fill="#414141"/>
<path d="M11.6289 26.6256L5.78371 22.929L7.26382 20.5886C7.53578 20.1586 7.82634 19.8403 8.13553 19.6336C8.44472 19.4269 8.75825 19.3228 9.07613 19.3214C9.39211 19.3188 9.6966 19.4102 9.98963 19.5955C10.218 19.7399 10.3898 19.9125 10.5052 20.1133C10.6187 20.313 10.6801 20.5276 10.6893 20.7572C10.6979 20.9837 10.6607 21.2132 10.5776 21.4457L10.6347 21.4818C10.785 21.2652 10.9795 21.0966 11.2183 20.9759C11.4583 20.8533 11.7215 20.7973 12.0078 20.8079C12.2922 20.8173 12.5781 20.9128 12.8654 21.0946C13.1755 21.2907 13.4036 21.5428 13.5497 21.851C13.6951 22.156 13.7437 22.5024 13.6956 22.8902C13.6475 23.278 13.485 23.6907 13.2083 24.1283L11.6289 26.6256ZM11.4001 24.7509L12.0373 23.7434C12.2551 23.399 12.3483 23.1063 12.3169 22.8653C12.2836 22.6232 12.1565 22.4323 11.9358 22.2927C11.7741 22.1904 11.6067 22.1392 11.4337 22.139C11.2607 22.1388 11.0933 22.1887 10.9314 22.2888C10.7708 22.387 10.6279 22.535 10.5027 22.7329L9.84748 23.7689L11.4001 24.7509ZM9.01124 23.2401L9.59065 22.3239C9.69774 22.1546 9.76331 21.9856 9.78736 21.817C9.8107 21.6453 9.79127 21.4865 9.72904 21.3406C9.66802 21.1928 9.56045 21.0701 9.40633 20.9727C9.19513 20.8391 8.9773 20.8066 8.75285 20.8751C8.52961 20.9416 8.33134 21.1119 8.15806 21.3859L7.56421 22.3249L9.01124 23.2401Z" fill="#414141"/>
</svg>
