<svg width="41" height="39" viewBox="0 0 41 39" fill="none" xmlns="http://www.w3.org/2000/svg">
<path fill-rule="evenodd" clip-rule="evenodd" d="M3 0L0 13H3L3.5 10.5H6.5L7 13H10L7 0H3ZM4 8L5 2L6 8H4Z" fill="#5982D5"/>
<path d="M11 13V0H14V5L16.5 0H20L17 5.5L20 13H16.5L15 8.5L14 10V13H11Z" fill="#5982D5"/>
<path fill-rule="evenodd" clip-rule="evenodd" d="M21.5 0V13H26.5C28.5 13 29.8028 11.4229 30 9.5C30.1517 8.02069 29.5 6.5 28.5 6C29 5.5 29.5 4.5 29.5 3C29.5 1.5 28.5 0 27 0H21.5ZM24.5 2C25.3333 2 27 2 27 3.5C27 5 25.3333 5 24.5 5V2ZM27 9C27 7.5 25.5 7.5 24.5 7.5V10.5C25.5 10.5 27 10.5 27 9Z" fill="#5982D5"/>
<path fill-rule="evenodd" clip-rule="evenodd" d="M34 0L31 13H34L34.5 10.5H37.5L38 13H41L38 0H34ZM35 8L36 2L37 8H35Z" fill="#5982D5"/>
<path d="M0 15.5V18H40.5V15.5H0Z" fill="#5982D5"/>
<path d="M0 22.5V20H40.5V22.5H8V38.5H5V22.5H0Z" fill="#E26D7E"/>
<path d="M10 25.5V38.5H17.5V36.5H13V33H17.5V30.5H13V28H17.5V25.5H10Z" fill="#E26D7E"/>
<path fill-rule="evenodd" clip-rule="evenodd" d="M19 38.5V25.5C19 25.5 22.5 25.5 24 25.5C25.5 25.5 27.5 26.3287 27.5 29.5C27.5 32.6713 25.5 33.5 24 33.5H22V38.5H19ZM22 27.5V31C23.5 31 24.5 31 24.5 29C24.5 27.5 23.5 27.5 22 27.5Z" fill="#E26D7E"/>
<path d="M28.5 38.5V25.5H33L34.5 35L36.5 25.5H40.5V38.5H37.5V28.5L35.5 38.5H33.5L31.5 28.5V38.5H28.5Z" fill="#E26D7E"/>
</svg>
