<svg width="106" height="106" viewBox="0 0 106 106" fill="none" xmlns="http://www.w3.org/2000/svg">
<path opacity="0.4" d="M80.9711 25.3714L29.33 77.0125C27.3945 78.9479 24.1394 78.6839 22.5559 76.3966C17.1015 68.4349 13.8904 59.0216 13.8904 49.3444V30.034C13.8904 26.4271 16.6176 22.3362 19.9607 20.9726L44.4616 10.9435C50.004 8.65619 56.1623 8.65619 61.7047 10.9435L79.4755 18.2014C82.4227 19.3891 83.1704 23.172 80.9711 25.3714Z" fill="#639EE4"/>
<path d="M85.106 31.398C87.9652 28.9787 92.32 31.0461 92.32 34.785V49.3448C92.32 70.8546 76.7046 91.0008 55.3707 96.8951C53.9191 97.291 52.3356 97.291 50.84 96.8951C44.5938 95.1356 38.7874 92.1885 33.8168 88.3176C31.7054 86.6901 31.4855 83.611 33.333 81.7195C42.9222 71.9104 70.9861 43.3186 85.106 31.398Z" fill="#639EE4"/>
</svg>
