<svg width="112" height="111" viewBox="0 0 112 111" fill="none" xmlns="http://www.w3.org/2000/svg">
<path d="M88.6707 69.4175C78.4599 69.4175 70.1897 77.6877 70.1897 87.8985C70.1897 91.3637 71.16 94.644 72.8695 97.4162C76.0575 102.776 81.9251 106.379 88.6707 106.379C95.4163 106.379 101.284 102.776 104.472 97.4162C106.181 94.644 107.152 91.3637 107.152 87.8985C107.152 77.6877 98.8815 69.4175 88.6707 69.4175ZM98.2347 85.9118L88.3935 95.0137C87.7467 95.6143 86.8688 95.9377 86.0371 95.9377C85.1593 95.9377 84.2816 95.6143 83.5885 94.9213L79.0143 90.3472C77.6744 89.0073 77.6744 86.7896 79.0143 85.4498C80.3541 84.1099 82.5718 84.1099 83.9117 85.4498L86.1296 87.6675L93.5219 80.8295C94.908 79.5358 97.1257 79.6282 98.4194 81.0143C99.713 82.4004 99.6207 84.5719 98.2347 85.9118Z" fill="#639EE4"/>
<path d="M102.531 34.9506V41.6962H10.126V34.9506C10.126 24.3702 18.7198 15.8228 29.3001 15.8228H83.3569C93.9372 15.8228 102.531 24.3702 102.531 34.9506Z" fill="#639EE4"/>
<path opacity="0.4" d="M10.126 41.6958V76.1629C10.126 86.7433 18.6735 95.2907 29.2539 95.2907H58.1767C60.8565 95.2907 63.1664 93.0268 62.9354 90.347C62.2886 83.2781 64.5526 75.6085 70.8362 69.5097C73.4235 66.9686 76.6115 65.0281 80.0767 63.9192C85.852 62.0711 91.4423 62.3021 96.386 63.9654C99.3892 64.9819 102.531 62.8104 102.531 59.6224V41.6958H10.126ZM37.8475 79.8129H28.607C26.7127 79.8129 25.1418 78.242 25.1418 76.3477C25.1418 74.4534 26.7127 72.8825 28.607 72.8825H37.8475C39.7418 72.8825 41.3127 74.4534 41.3127 76.3477C41.3127 78.242 39.7418 79.8129 37.8475 79.8129Z" fill="#639EE4"/>
<path d="M41.3139 76.348C41.3139 78.2423 39.7431 79.8132 37.8488 79.8132H28.6083C26.714 79.8132 25.1431 78.2423 25.1431 76.348C25.1431 74.4537 26.714 72.8828 28.6083 72.8828H37.8488C39.7431 72.8828 41.3139 74.4537 41.3139 76.348Z" fill="#639EE4"/>
</svg>
