<svg width="111" height="111" viewBox="0 0 111 111" fill="none" xmlns="http://www.w3.org/2000/svg">
<path opacity="0.4" d="M100.954 52.8306L98.0895 84.1559C97.1192 93.3964 93.3306 102.822 73.0015 102.822H37.7952C17.4661 102.822 13.6775 93.3964 12.7534 84.2021L9.93506 54.1242C9.98126 54.1704 10.0275 54.2166 10.1199 54.2628C11.6908 55.2793 13.2154 56.2958 14.8787 57.2198C15.5256 57.6356 16.2186 58.0052 16.9116 58.3749C22.1325 61.2394 27.723 63.5034 33.4983 65.0742C35.8085 65.7673 38.1648 66.2755 40.5673 66.6913C41.4914 74.0837 47.8211 79.8128 55.4445 79.8128C63.1604 79.8128 69.5363 73.9451 70.368 66.4141V66.3679C72.7243 65.9059 75.0806 65.3052 77.3907 64.6122C83.1661 62.8103 88.7566 60.4078 93.9774 57.3584C94.2547 57.2198 94.4857 57.0812 94.6705 56.9426C96.7958 55.7875 98.8287 54.4477 100.769 53.0616C100.862 53.0154 100.908 52.923 100.954 52.8306Z" fill="#639EE4"/>
<path d="M97.4407 32.363C93.5135 28.02 86.9989 25.8485 77.435 25.8485H76.3261V25.6637C76.3261 17.9016 76.3261 8.2915 58.954 8.2915H51.9312C34.559 8.2915 34.559 17.9016 34.559 25.6637V25.8485H33.4502C23.8863 25.8485 17.3255 28.02 13.4445 32.363C8.87044 37.4915 9.00904 44.2833 9.47107 48.9497L9.51727 49.2731L9.93309 54.1244C9.9793 54.1706 10.0717 54.2168 10.1641 54.263C11.735 55.2795 13.2597 56.2959 14.923 57.22C15.5698 57.6358 16.2628 58.0054 16.9559 58.375C22.1768 61.2396 27.7673 63.5035 33.4964 65.0744C33.635 77.0409 43.4299 86.7434 55.4426 86.7434C67.5476 86.7434 77.3888 76.9022 77.3888 64.7972V64.6124C83.2103 62.8567 88.8008 60.408 94.0217 57.3586C94.2989 57.22 94.4837 57.0814 94.7147 56.9428C96.84 55.7877 98.8729 54.4478 100.813 53.0617C100.86 53.0155 100.952 52.9231 100.998 52.8307L101.183 51.1674L101.414 48.9959C101.46 48.7187 101.46 48.4877 101.506 48.1643C101.876 43.544 101.784 37.1681 97.4407 32.363ZM41.166 25.6637C41.166 17.8092 41.166 14.8523 51.9312 14.8523H58.954C69.7192 14.8523 69.7192 17.8092 69.7192 25.6637V25.8485H41.166V25.6637ZM55.4426 79.813C47.8192 79.813 41.4894 74.0839 40.5654 66.6915C40.473 66.0909 40.4268 65.444 40.4268 64.7972C40.4268 56.5269 47.1723 49.7814 55.4426 49.7814C63.7128 49.7814 70.4584 56.5269 70.4584 64.7972C70.4584 65.3516 70.4122 65.8598 70.366 66.3681V66.4143C69.5343 73.9453 63.1584 79.813 55.4426 79.813Z" fill="#639EE4"/>
<path d="M52.8089 74.1764C51.9311 74.1764 51.0532 73.853 50.3602 73.16L45.7862 68.6321C44.4463 67.2922 44.4463 65.0745 45.7862 63.7347C47.126 62.3948 49.3438 62.3948 50.6836 63.7347L52.9013 65.9524L60.34 59.1144C61.726 57.8207 63.9437 57.9131 65.2374 59.2992C66.5311 60.6853 66.4387 62.903 65.0526 64.1967L55.2115 73.2986C54.4722 73.853 53.6406 74.1764 52.8089 74.1764Z" fill="#639EE4"/>
</svg>
