<svg width="120" height="120" viewBox="0 0 120 120" fill="none" xmlns="http://www.w3.org/2000/svg">
<path opacity="0.4" d="M60.0003 86.7502C64.5015 86.7502 68.1503 83.1013 68.1503 78.6002C68.1503 74.0991 64.5015 70.4502 60.0003 70.4502C55.4992 70.4502 51.8503 74.0991 51.8503 78.6002C51.8503 83.1013 55.4992 86.7502 60.0003 86.7502Z" fill="#FF7889"/>
<path d="M83.2495 47.2002H36.7495C16.2495 47.2002 9.99951 53.4502 9.99951 73.9502V83.2502C9.99951 103.75 16.2495 110 36.7495 110H83.2495C103.749 110 109.999 103.75 109.999 83.2502V73.9502C109.999 53.4502 103.749 47.2002 83.2495 47.2002ZM59.9995 93.7002C51.6495 93.7002 44.8995 86.9002 44.8995 78.6002C44.8995 70.3002 51.6495 63.5002 59.9995 63.5002C68.3495 63.5002 75.0995 70.3002 75.0995 78.6002C75.0995 86.9002 68.3495 93.7002 59.9995 93.7002Z" fill="#FF7889"/>
<path opacity="0.4" d="M35.5981 47.25V41.4C35.5981 26.75 39.7481 17 59.9981 17C80.2481 17 84.3981 26.75 84.3981 41.4V47.25C86.9481 47.3 89.2481 47.4 91.3981 47.7V41.4C91.3981 27.9 88.1481 10 59.9981 10C31.8481 10 28.5981 27.9 28.5981 41.4V47.65C30.6981 47.4 33.0481 47.25 35.5981 47.25Z" fill="#FF7889"/>
</svg>
