<svg width="107" height="106" viewBox="0 0 107 106" fill="none" xmlns="http://www.w3.org/2000/svg">
<path opacity="0.4" d="M66.7531 13.6268V53.2154C66.7531 58.054 62.7943 62.0128 57.9556 62.0128H9.56958V33.9489C12.7807 37.7758 17.7074 40.1511 23.1618 40.0192C27.6045 39.9312 31.6072 38.2157 34.5984 35.3565C35.962 34.2128 37.1057 32.7612 37.9855 31.1777C39.569 28.4944 40.4487 25.3273 40.3607 22.0282C40.2288 16.8817 37.9415 12.3511 34.3785 9.22803H62.3544C64.7737 9.22803 66.7531 11.2075 66.7531 13.6268Z" fill="#639EE4"/>
<path d="M97.5443 62.0129V75.2091C97.5443 82.511 91.6499 88.4053 84.3481 88.4053H79.9493C79.9493 83.5667 75.9905 79.6078 71.1519 79.6078C66.3132 79.6078 62.3544 83.5667 62.3544 88.4053H44.7594C44.7594 83.5667 40.8006 79.6078 35.962 79.6078C31.1234 79.6078 27.1645 83.5667 27.1645 88.4053H22.7658C15.4639 88.4053 9.56958 82.511 9.56958 75.2091V62.0129H57.9557C62.7943 62.0129 66.7531 58.0541 66.7531 53.2154V22.4243H74.8469C78.014 22.4243 80.9171 24.1399 82.5007 26.8671L90.0223 40.0192H84.3481C81.9287 40.0192 79.9493 41.9987 79.9493 44.418V57.6142C79.9493 60.0335 81.9287 62.0129 84.3481 62.0129H97.5443Z" fill="#639EE4"/>
<path opacity="0.4" d="M35.9615 97.2028C40.8202 97.2028 44.759 93.2641 44.759 88.4054C44.759 83.5467 40.8202 79.6079 35.9615 79.6079C31.1028 79.6079 27.1641 83.5467 27.1641 88.4054C27.1641 93.2641 31.1028 97.2028 35.9615 97.2028Z" fill="#639EE4"/>
<path opacity="0.4" d="M71.151 97.2028C76.0097 97.2028 79.9484 93.2641 79.9484 88.4054C79.9484 83.5467 76.0097 79.6079 71.151 79.6079C66.2923 79.6079 62.3535 83.5467 62.3535 88.4054C62.3535 93.2641 66.2923 97.2028 71.151 97.2028Z" fill="#639EE4"/>
<path opacity="0.4" d="M97.5442 55.5467V62.0127H84.348C81.9286 62.0127 79.9492 60.0333 79.9492 57.614V44.4178C79.9492 41.9985 81.9286 40.019 84.348 40.019H90.0222L96.4004 51.1917C97.1482 52.5113 97.5442 54.0071 97.5442 55.5467Z" fill="#639EE4"/>
<path d="M34.3787 9.22821C31.2116 6.41302 26.9887 4.74151 22.37 4.82948C18.2352 4.91746 14.4524 6.45698 11.4612 8.92027C7.50236 12.2193 5.0391 17.278 5.17107 22.8204C5.25904 26.1195 6.22678 29.1985 7.94229 31.7937C8.42615 32.5415 8.95398 33.2893 9.5698 33.9491C12.7809 37.776 17.7076 40.1513 23.162 40.0193C27.6047 39.9314 31.6075 38.2159 34.5986 35.3567C35.9622 34.213 37.106 32.7614 37.9857 31.1778C39.5693 28.4946 40.4489 25.3275 40.3609 22.0284C40.229 16.8819 37.9417 12.3513 34.3787 9.22821ZM31.8274 20.3131L22.6339 29.1984C21.9741 29.8142 21.1825 30.1222 20.3467 30.1222C19.511 30.1222 18.7191 29.8142 18.0593 29.1984L13.6166 24.9758C12.2969 23.7001 12.2531 21.6327 13.5288 20.3131C14.8044 18.9935 16.8718 18.9494 18.1914 20.225L20.3467 22.2923L27.2528 15.6064C28.5724 14.3308 30.6398 14.3746 31.9154 15.6942C33.1911 16.9699 33.147 19.0375 31.8274 20.3131Z" fill="#639EE4"/>
</svg>
