<svg width="17" height="21" viewBox="0 0 17 21" fill="none" xmlns="http://www.w3.org/2000/svg">
<path d="M16.9901 17.5567C16.9616 17.8044 16.8814 18.1212 16.7494 18.5069C16.6174 18.8926 16.4909 19.1928 16.3698 19.4075C16.1363 19.8382 15.5554 20.243 14.6271 20.6219C13.7643 20.9644 12.937 21.0742 12.1452 20.9514C11.9129 20.9153 11.6888 20.8643 11.4731 20.7981C11.2573 20.732 11.0165 20.6363 10.7506 20.511C10.4847 20.3857 10.288 20.2875 10.1604 20.2163C10.0328 20.1452 9.80479 20.0141 9.47639 19.8231C9.148 19.6321 8.94665 19.5169 8.87235 19.4773C8.06592 19.0254 7.3567 18.5279 6.74472 17.9848C5.72657 17.0892 4.70219 15.9241 3.67158 14.4897C2.64097 13.0552 1.85329 11.6981 1.30855 10.4184C0.976773 9.64791 0.712006 8.78978 0.514256 7.84398C0.497933 7.7574 0.446356 7.52062 0.35949 7.13365C0.272625 6.74666 0.213707 6.47838 0.182731 6.32885C0.151774 6.17931 0.114457 5.95175 0.0707826 5.64615C0.0271237 5.34057 0.00367579 5.06847 0.000494403 4.82986C-0.00274458 4.59127 0.0099341 4.34812 0.0384416 4.1004C0.13557 3.25637 0.453214 2.43721 0.991335 1.64292C1.57991 0.791063 2.10045 0.302176 2.55291 0.176249C2.77967 0.108706 3.08551 0.0580885 3.47042 0.0244155C3.85533 -0.00927908 4.16398 -0.00809414 4.39635 0.027943C4.51683 0.0466291 4.60562 0.0743996 4.66267 0.111271C4.81126 0.190341 4.99919 0.574323 5.2265 1.26324C5.3011 1.45223 5.40169 1.71996 5.52825 2.0664C5.65481 2.41286 5.7719 2.7275 5.87951 3.01031C5.98711 3.29313 6.09226 3.55923 6.19496 3.80862C6.21656 3.84932 6.27866 3.97568 6.38127 4.18767C6.48388 4.39969 6.55767 4.57688 6.60261 4.71924C6.64754 4.8616 6.6626 4.99702 6.64782 5.12544C6.62671 5.30893 6.4777 5.51928 6.20074 5.75645C5.9238 5.99365 5.62799 6.20456 5.3133 6.3892C4.9986 6.57384 4.70384 6.77559 4.42901 6.99443C4.15417 7.21325 4.00725 7.40525 3.98825 7.57038C3.97874 7.65295 3.98838 7.75949 4.01717 7.89003C4.04594 8.02054 4.07169 8.12025 4.09442 8.18914C4.11715 8.25804 4.16472 8.37747 4.23714 8.54743C4.30956 8.71742 4.34903 8.81225 4.35551 8.83194C4.86492 10.1902 5.48959 11.3843 6.22951 12.4142C6.96945 13.4441 7.88879 14.399 8.98759 15.2791C9.00375 15.291 9.07941 15.3564 9.21464 15.4754C9.34985 15.5944 9.44573 15.6747 9.50227 15.7161C9.55882 15.7576 9.64255 15.8102 9.75347 15.8741C9.86436 15.938 9.95855 15.976 10.036 15.988C10.1909 16.012 10.4039 15.912 10.6749 15.6879C10.946 15.4638 11.2068 15.2148 11.4573 14.9408C11.7078 14.6668 11.9772 14.4191 12.2655 14.1977C12.5537 13.9763 12.7839 13.8789 12.9561 13.9056C13.0765 13.9243 13.1955 13.9754 13.3129 14.059C13.4303 14.1426 13.5717 14.2649 13.7371 14.426C13.9025 14.587 14.0008 14.6839 14.0321 14.7168C14.2314 14.8878 14.4452 15.0657 14.6736 15.2505C14.902 15.4354 15.1568 15.6383 15.4379 15.8593C15.7191 16.0803 15.9356 16.254 16.0875 16.3802C16.653 16.7948 16.952 17.0886 16.9847 17.2618C17.0031 17.33 17.0049 17.4283 16.9901 17.5567Z" fill="#FF7889"/>
</svg>
