<svg width="34" height="32" viewBox="0 0 34 32" fill="none" xmlns="http://www.w3.org/2000/svg">
<path opacity="0.4" d="M15.2104 24.8885C21.6344 24.8885 26.842 19.7149 26.842 13.3329C26.842 6.95094 21.6344 1.77734 15.2104 1.77734C8.78649 1.77734 3.57886 6.95094 3.57886 13.3329C3.57886 19.7149 8.78649 24.8885 15.2104 24.8885Z" fill="#639EE4"/>
<path d="M30.1748 29.3333C29.9198 29.3333 29.6648 29.2399 29.4807 29.0666L25.0522 24.8888C24.6697 24.5288 24.6697 23.9422 25.0522 23.5688C25.4347 23.2088 26.0581 23.2088 26.4547 23.5688L30.8832 27.7466C31.2657 28.1066 31.2657 28.6933 30.8832 29.0666C30.6848 29.2399 30.4298 29.3333 30.1748 29.3333Z" fill="#639EE4"/>
</svg>
