<svg width="34" height="32" viewBox="0 0 34 32" fill="none" xmlns="http://www.w3.org/2000/svg">
<path opacity="0.4" d="M27.2568 7.43975H26.6902L21.9018 2.93309C21.5193 2.57309 20.896 2.57309 20.4993 2.93309C20.1168 3.29309 20.1168 3.87975 20.4993 4.25309L23.8852 7.43975H10.1152L13.501 4.25309C13.8835 3.89309 13.8835 3.30642 13.501 2.93309C13.1185 2.57309 12.4952 2.57309 12.0985 2.93309L7.32433 7.43975H6.75766C5.48266 7.43975 2.8335 7.43975 2.8335 10.8531C2.8335 12.1464 3.11683 12.9998 3.71183 13.5598C4.05183 13.8931 4.46266 14.0664 4.90183 14.1598C5.31266 14.2531 5.75183 14.2664 6.17683 14.2664H27.8235C28.2627 14.2664 28.6735 14.2398 29.0702 14.1598C30.2602 13.8931 31.1668 13.0931 31.1668 10.8531C31.1668 7.43975 28.5177 7.43975 27.2568 7.43975Z" fill="#FF7889"/>
<path d="M27.8377 14.2668H6.17686C5.75186 14.2668 5.31269 14.2535 4.90186 14.1602L6.68686 24.4002C7.08352 26.6935 8.14602 29.3335 12.8635 29.3335H20.811C25.5852 29.3335 26.4352 27.0802 26.9452 24.5602L29.0844 14.1602C28.6877 14.2402 28.2627 14.2668 27.8377 14.2668ZM15.031 22.8802C15.031 23.4002 14.5919 23.8135 14.0394 23.8135C13.4869 23.8135 13.0477 23.4002 13.0477 22.8802V18.4802C13.0477 17.9602 13.4869 17.5468 14.0394 17.5468C14.5919 17.5468 15.031 17.9602 15.031 18.4802V22.8802ZM21.0944 22.8802C21.0944 23.4002 20.6552 23.8135 20.1027 23.8135C19.5502 23.8135 19.111 23.4002 19.111 22.8802V18.4802C19.111 17.9602 19.5502 17.5468 20.1027 17.5468C20.6552 17.5468 21.0944 17.9602 21.0944 18.4802V22.8802Z" fill="#FF7889"/>
</svg>
